<svg xmlns="http://www.w3.org/2000/svg" width="760" height="600" viewBox="0 0 760 600">
<rect width="760" height="600" fill="#f3f0ea"/>
<polygon points="408.3,488.1 526,461.5 408.6,374.3 328.9,372.5" fill="rgb(40,44,54)"/>
<line x1="499" y1="448.9" x2="475.7" y2="474.6" stroke="rgb(40,44,54)" stroke-width="34" stroke-linecap="round" stroke-linejoin="round"/>
<line x1="475.7" y1="474.6" x2="407" y2="437.7" stroke="rgb(40,44,54)" stroke-width="34" stroke-linecap="round" stroke-linejoin="round"/>
<line x1="475.7" y1="474.6" x2="408.3" y2="488.1" stroke="rgb(40,44,54)" stroke-width="34" stroke-linecap="round" stroke-linejoin="round"/>
<line x1="475.7" y1="474.6" x2="526" y2="461.5" stroke="rgb(40,44,54)" stroke-width="34" stroke-linecap="round" stroke-linejoin="round"/>
<line x1="408.3" y1="488.1" x2="306" y2="520" stroke="rgb(40,44,54)" stroke-width="34" stroke-linecap="round" stroke-linejoin="round"/>
<line x1="306" y1="520" x2="300.8" y2="446.8" stroke="rgb(40,44,54)" stroke-width="34" stroke-linecap="round" stroke-linejoin="round"/>
<line x1="300.8" y1="446.8" x2="299.6" y2="413.5" stroke="rgb(40,44,54)" stroke-width="34" stroke-linecap="round" stroke-linejoin="round"/>
<line x1="526" y1="461.5" x2="568.9" y2="447" stroke="rgb(40,44,54)" stroke-width="34" stroke-linecap="round" stroke-linejoin="round"/>
<line x1="568.9" y1="447" x2="466.8" y2="429.5" stroke="rgb(40,44,54)" stroke-width="34" stroke-linecap="round" stroke-linejoin="round"/>
<line x1="466.8" y1="429.5" x2="478.3" y2="398.7" stroke="rgb(40,44,54)" stroke-width="34" stroke-linecap="round" stroke-linejoin="round"/>
<line x1="407" y1="437.7" x2="328.9" y2="372.5" stroke="rgb(40,44,54)" stroke-width="34" stroke-linecap="round" stroke-linejoin="round"/>
<line x1="407" y1="437.7" x2="408.6" y2="374.3" stroke="rgb(40,44,54)" stroke-width="34" stroke-linecap="round" stroke-linejoin="round"/>
<line x1="328.9" y1="372.5" x2="220.9" y2="233.5" stroke="rgb(40,44,54)" stroke-width="34" stroke-linecap="round" stroke-linejoin="round"/>
<line x1="220.9" y1="233.5" x2="289.5" y2="175.1" stroke="rgb(40,44,54)" stroke-width="34" stroke-linecap="round" stroke-linejoin="round"/>
<line x1="289.5" y1="175.1" x2="274.2" y2="125.1" stroke="rgb(40,44,54)" stroke-width="34" stroke-linecap="round" stroke-linejoin="round"/>
<line x1="408.6" y1="374.3" x2="388.8" y2="199.3" stroke="rgb(40,44,54)" stroke-width="34" stroke-linecap="round" stroke-linejoin="round"/>
<line x1="388.8" y1="199.3" x2="240.4" y2="140.7" stroke="rgb(40,44,54)" stroke-width="34" stroke-linecap="round" stroke-linejoin="round"/>
<line x1="240.4" y1="140.7" x2="204.7" y2="80" stroke="rgb(40,44,54)" stroke-width="34" stroke-linecap="round" stroke-linejoin="round"/>
<circle cx="499" cy="448.9" r="37" fill="rgb(40,44,54)"/>

<line x1="406.7" y1="192.8" x2="382.2" y2="213.5" stroke="rgb(243,240,234)" stroke-width="44" stroke-linecap="round"/>
<line x1="382.2" y1="213.5" x2="314.1" y2="198.5" stroke="rgb(243,240,234)" stroke-width="44" stroke-linecap="round"/>
<line x1="382.2" y1="213.5" x2="437.6" y2="207.9" stroke="rgb(243,240,234)" stroke-width="44" stroke-linecap="round"/>
<line x1="382.2" y1="213.5" x2="320.5" y2="242.2" stroke="rgb(243,240,234)" stroke-width="44" stroke-linecap="round"/>
<line x1="437.6" y1="207.9" x2="455.7" y2="324.4" stroke="rgb(243,240,234)" stroke-width="44" stroke-linecap="round"/>
<line x1="455.7" y1="324.4" x2="436.6" y2="390.5" stroke="rgb(243,240,234)" stroke-width="44" stroke-linecap="round"/>
<line x1="436.6" y1="390.5" x2="438.6" y2="378.8" stroke="rgb(243,240,234)" stroke-width="44" stroke-linecap="round"/>
<line x1="320.5" y1="242.2" x2="301.9" y2="361.8" stroke="rgb(243,240,234)" stroke-width="44" stroke-linecap="round"/>
<line x1="301.9" y1="361.8" x2="397.8" y2="399.5" stroke="rgb(243,240,234)" stroke-width="44" stroke-linecap="round"/>
<line x1="397.8" y1="399.5" x2="406.8" y2="395.2" stroke="rgb(243,240,234)" stroke-width="44" stroke-linecap="round"/>
<line x1="314.1" y1="198.5" x2="336.3" y2="258.3" stroke="rgb(243,240,234)" stroke-width="44" stroke-linecap="round"/>
<line x1="314.1" y1="198.5" x2="256.7" y2="282.9" stroke="rgb(243,240,234)" stroke-width="44" stroke-linecap="round"/>
<line x1="336.3" y1="258.3" x2="467" y2="372.4" stroke="rgb(243,240,234)" stroke-width="44" stroke-linecap="round"/>
<line x1="467" y1="372.4" x2="356.2" y2="312.1" stroke="rgb(243,240,234)" stroke-width="44" stroke-linecap="round"/>
<line x1="356.2" y1="312.1" x2="314.5" y2="298.4" stroke="rgb(243,240,234)" stroke-width="44" stroke-linecap="round"/>
<line x1="256.7" y1="282.9" x2="253.8" y2="435.1" stroke="rgb(243,240,234)" stroke-width="44" stroke-linecap="round"/>
<line x1="253.8" y1="435.1" x2="208.8" y2="337" stroke="rgb(243,240,234)" stroke-width="44" stroke-linecap="round"/>
<line x1="208.8" y1="337" x2="191.1" y2="333.6" stroke="rgb(243,240,234)" stroke-width="44" stroke-linecap="round"/>
<circle cx="406.7" cy="192.8" r="42" fill="rgb(243,240,234)"/>

<polygon points="437.6,207.9 320.5,242.2 256.7,282.9 336.3,258.3" fill="rgb(198,118,81)"/>
<line x1="406.7" y1="192.8" x2="382.2" y2="213.5" stroke="rgb(198,118,81)" stroke-width="34" stroke-linecap="round" stroke-linejoin="round"/>
<line x1="382.2" y1="213.5" x2="314.1" y2="198.5" stroke="rgb(198,118,81)" stroke-width="34" stroke-linecap="round" stroke-linejoin="round"/>
<line x1="382.2" y1="213.5" x2="437.6" y2="207.9" stroke="rgb(198,118,81)" stroke-width="34" stroke-linecap="round" stroke-linejoin="round"/>
<line x1="382.2" y1="213.5" x2="320.5" y2="242.2" stroke="rgb(198,118,81)" stroke-width="34" stroke-linecap="round" stroke-linejoin="round"/>
<line x1="437.6" y1="207.9" x2="455.7" y2="324.4" stroke="rgb(198,118,81)" stroke-width="34" stroke-linecap="round" stroke-linejoin="round"/>
<line x1="455.7" y1="324.4" x2="436.6" y2="390.5" stroke="rgb(198,118,81)" stroke-width="34" stroke-linecap="round" stroke-linejoin="round"/>
<line x1="436.6" y1="390.5" x2="438.6" y2="378.8" stroke="rgb(198,118,81)" stroke-width="34" stroke-linecap="round" stroke-linejoin="round"/>
<line x1="320.5" y1="242.2" x2="301.9" y2="361.8" stroke="rgb(198,118,81)" stroke-width="34" stroke-linecap="round" stroke-linejoin="round"/>
<line x1="301.9" y1="361.8" x2="397.8" y2="399.5" stroke="rgb(198,118,81)" stroke-width="34" stroke-linecap="round" stroke-linejoin="round"/>
<line x1="397.8" y1="399.5" x2="406.8" y2="395.2" stroke="rgb(198,118,81)" stroke-width="34" stroke-linecap="round" stroke-linejoin="round"/>
<line x1="314.1" y1="198.5" x2="336.3" y2="258.3" stroke="rgb(198,118,81)" stroke-width="34" stroke-linecap="round" stroke-linejoin="round"/>
<line x1="314.1" y1="198.5" x2="256.7" y2="282.9" stroke="rgb(198,118,81)" stroke-width="34" stroke-linecap="round" stroke-linejoin="round"/>
<line x1="336.3" y1="258.3" x2="467" y2="372.4" stroke="rgb(198,118,81)" stroke-width="34" stroke-linecap="round" stroke-linejoin="round"/>
<line x1="467" y1="372.4" x2="356.2" y2="312.1" stroke="rgb(198,118,81)" stroke-width="34" stroke-linecap="round" stroke-linejoin="round"/>
<line x1="356.2" y1="312.1" x2="314.5" y2="298.4" stroke="rgb(198,118,81)" stroke-width="34" stroke-linecap="round" stroke-linejoin="round"/>
<line x1="256.7" y1="282.9" x2="253.8" y2="435.1" stroke="rgb(198,118,81)" stroke-width="34" stroke-linecap="round" stroke-linejoin="round"/>
<line x1="253.8" y1="435.1" x2="208.8" y2="337" stroke="rgb(198,118,81)" stroke-width="34" stroke-linecap="round" stroke-linejoin="round"/>
<line x1="208.8" y1="337" x2="191.1" y2="333.6" stroke="rgb(198,118,81)" stroke-width="34" stroke-linecap="round" stroke-linejoin="round"/>
<circle cx="406.7" cy="192.8" r="37" fill="rgb(198,118,81)"/>

</svg>